<svg width="35" height="15" viewBox="0 0 31 10" fill="none" xmlns="http://www.w3.org/2000/svg">
<path d="M7.93945 9H6.41016L5.6543 6.86133H2.34961L1.62305 9H0.0996094L3.24609 0.597656H4.81641L7.93945 9ZM5.28516 5.72461L4.11914 2.37305C4.08398 2.26367 4.04688 2.08789 4.00781 1.8457H3.98438C3.94922 2.06836 3.91016 2.24414 3.86719 2.37305L2.71289 5.72461H5.28516ZM13.257 3.56836L10.0167 7.93945H13.2452V9H8.11242V8.49023L11.423 4.06055H8.42883V3H13.257V3.56836ZM19.5178 9H18.1584V8.05078H18.135C17.7405 8.77734 17.1272 9.14062 16.2952 9.14062C14.8772 9.14062 14.1682 8.28906 14.1682 6.58594V3H15.5276V6.44531C15.5276 7.52344 15.9436 8.0625 16.7756 8.0625C17.178 8.0625 17.508 7.91406 17.7659 7.61719C18.0276 7.32031 18.1584 6.93164 18.1584 6.45117V3H19.5178V9ZM24.6537 4.29492C24.4896 4.16602 24.2533 4.10156 23.9447 4.10156C23.5423 4.10156 23.2064 4.2832 22.9369 4.64648C22.6673 5.00977 22.5326 5.50391 22.5326 6.12891V9H21.1732V3H22.5326V4.23633H22.556C22.6888 3.81445 22.892 3.48633 23.1654 3.25195C23.4427 3.01367 23.7513 2.89453 24.0912 2.89453C24.3373 2.89453 24.5248 2.93164 24.6537 3.00586V4.29492ZM30.4692 6.36914H26.3794C26.395 6.92383 26.5649 7.35156 26.8891 7.65234C27.2173 7.95312 27.6665 8.10352 28.2368 8.10352C28.8774 8.10352 29.4653 7.91211 30.0005 7.5293V8.625C29.4536 8.96875 28.7309 9.14062 27.8325 9.14062C26.9497 9.14062 26.2563 8.86914 25.7524 8.32617C25.2524 7.7793 25.0024 7.01172 25.0024 6.02344C25.0024 5.08984 25.2778 4.33008 25.8286 3.74414C26.3833 3.1543 27.0708 2.85938 27.8911 2.85938C28.7114 2.85938 29.3462 3.12305 29.7954 3.65039C30.2446 4.17773 30.4692 4.91016 30.4692 5.84766V6.36914ZM29.1567 5.4082C29.1528 4.91992 29.0376 4.54102 28.811 4.27148C28.5845 3.99805 28.272 3.86133 27.8735 3.86133C27.4829 3.86133 27.1509 4.00391 26.8774 4.28906C26.6079 4.57422 26.4419 4.94727 26.3794 5.4082H29.1567Z" fill="#0078D4"/>
</svg>
