<svg width="40" height="40" viewBox="0 0 40 40" fill="none" xmlns="http://www.w3.org/2000/svg">
<path d="M11.5 20C11.5 15.3056 15.3056 11.5 20 11.5C24.6944 11.5 28.5 15.3056 28.5 20V22H26.25C25.8358 22 25.5 22.3358 25.5 22.75V29.25C25.5 29.6642 25.8358 30 26.25 30H27C28.6569 30 30 28.6569 30 27V20C30 14.4771 25.5228 10 20 10C14.4771 10 10 14.4771 10 20V27C10 28.6569 11.3432 30 13 30H13.75C14.1642 30 14.5 29.6642 14.5 29.25V22.75C14.5 22.3358 14.1642 22 13.75 22H11.5V20ZM28.5 23.5V27C28.5 27.8284 27.8284 28.5 27 28.5V23.5H28.5ZM11.5 27V23.5H13V28.5C12.1716 28.5 11.5 27.8284 11.5 27ZM20.75 19.75C20.75 19.3358 20.4142 19 20 19C19.5858 19 19.25 19.3358 19.25 19.75V30.25C19.25 30.6642 19.5858 31 20 31C20.4142 31 20.75 30.6642 20.75 30.25V19.75ZM16.75 21.9998C17.1642 21.9998 17.5 22.3355 17.5 22.7498V27.25C17.5 27.6642 17.1642 28 16.75 28C16.3358 28 16 27.6642 16 27.25V22.7498C16 22.3355 16.3358 21.9998 16.75 21.9998ZM24 22.75C24 22.3358 23.6642 22 23.25 22C22.8358 22 22.5 22.3358 22.5 22.75V27.2502C22.5 27.6644 22.8358 28.0002 23.25 28.0002C23.6642 28.0002 24 27.6644 24 27.2502V22.75Z" fill="#212121"/>
<circle cx="20" cy="20" r="19.5" stroke="none"/>
</svg>
