<svg width="28" height="28" viewBox="0 0 28 28" fill="none" xmlns="http://www.w3.org/2000/svg">
<path d="M14 0.666664C6.63616 0.666664 0.666626 6.6362 0.666626 14C0.666626 21.3637 6.63616 27.3333 14 27.3333C21.3637 27.3333 27.3333 21.3637 27.3333 14C27.3333 6.6362 21.3637 0.666664 14 0.666664ZM12 9V19C12 19.5523 11.5522 20 11 20C10.4477 20 9.99996 19.5523 9.99996 19V9C9.99996 8.44772 10.4477 8 11 8C11.5522 8 12 8.44772 12 9ZM18 9V19C18 19.5523 17.5522 20 17 20C16.4477 20 16 19.5523 16 19V9C16 8.44772 16.4477 8 17 8C17.5522 8 18 8.44772 18 9Z" fill="#0078D4"/>
</svg>
